<svg width="1280" height="860" viewBox="0 0 1280 860" fill="none" xmlns="http://www.w3.org/2000/svg">
  <rect width="1280" height="860" rx="40" fill="#07131A"/>
  <rect x="38" y="38" width="1204" height="784" rx="30" fill="#0E1F27" stroke="#1E3743"/>
  <rect x="76" y="76" width="260" height="708" rx="24" fill="#0A171D"/>
  <rect x="106" y="116" width="160" height="18" rx="9" fill="#4F8B72"/>
  <rect x="106" y="176" width="200" height="52" rx="18" fill="#163341"/>
  <rect x="106" y="244" width="200" height="52" rx="18" fill="#102832"/>
  <rect x="106" y="312" width="200" height="52" rx="18" fill="#102832"/>
  <rect x="106" y="380" width="200" height="52" rx="18" fill="#102832"/>
  <rect x="370" y="76" width="834" height="108" rx="24" fill="#11262F"/>
  <rect x="404" y="110" width="240" height="22" rx="11" fill="#F1F5F9" fill-opacity="0.95"/>
  <rect x="404" y="144" width="168" height="14" rx="7" fill="#6E8594"/>
  <rect x="938" y="108" width="110" height="42" rx="16" fill="#4F8B72"/>
  <rect x="1062" y="108" width="110" height="42" rx="16" fill="#E38B28"/>
  <rect x="370" y="214" width="258" height="156" rx="24" fill="#122B35"/>
  <rect x="652" y="214" width="258" height="156" rx="24" fill="#122B35"/>
  <rect x="934" y="214" width="270" height="156" rx="24" fill="#122B35"/>
  <rect x="396" y="244" width="108" height="16" rx="8" fill="#6BA88E"/>
  <rect x="396" y="276" width="78" height="34" rx="12" fill="#F8A94A"/>
  <rect x="678" y="244" width="108" height="16" rx="8" fill="#6BA88E"/>
  <rect x="678" y="276" width="78" height="34" rx="12" fill="#F8A94A"/>
  <rect x="960" y="244" width="108" height="16" rx="8" fill="#6BA88E"/>
  <rect x="960" y="276" width="78" height="34" rx="12" fill="#F8A94A"/>
  <rect x="370" y="400" width="560" height="384" rx="24" fill="#11262F"/>
  <rect x="958" y="400" width="246" height="384" rx="24" fill="#11262F"/>
  <rect x="402" y="434" width="140" height="18" rx="9" fill="#F1F5F9"/>
  <rect x="402" y="470" width="494" height="270" rx="20" fill="#0C1A21"/>
  <path d="M442 650C502 602 548 574 606 560C666 546 728 548 856 504" stroke="#6BA88E" stroke-width="14" stroke-linecap="round"/>
  <circle cx="442" cy="650" r="14" fill="#E38B28"/>
  <circle cx="606" cy="560" r="14" fill="#E38B28"/>
  <circle cx="856" cy="504" r="14" fill="#E38B28"/>
  <rect x="986" y="434" width="120" height="18" rx="9" fill="#F1F5F9"/>
  <rect x="986" y="482" width="190" height="88" rx="18" fill="#0C1A21"/>
  <rect x="986" y="592" width="190" height="18" rx="9" fill="#6BA88E"/>
  <rect x="986" y="626" width="190" height="18" rx="9" fill="#304B57"/>
  <rect x="986" y="660" width="148" height="18" rx="9" fill="#304B57"/>
</svg>
